<svg viewBox="0 0 128 128" xmlns="http://www.w3.org/2000/svg">
    <circle cx="64" cy="64" r="60" fill="#7B504F"/>
    <circle cx="64" cy="64" r="52.5" fill="#FEFEFE"/>
    <path d="M124.94 17.056a110.955 110.955 0 0 1 81.209 110.305 110.745 110.745 0 0 1-97.149 110.765c-3.324.401-6.698.751-10.048.778-4.649.02-9.27.04-13.904-.41a111.938 111.938 0 0 1-65.2-29.363A110.621 110.621 0 0 1-14.533 132.04 111.19 111.19 0 0 1 15.383 52.065 110.168 110.168 0 0 1 93.01 17.166" fill="#7B504F" transform="scale(0.05) translate(1024 1024)"/>
    <style>
        @media (prefers-color-scheme: dark) {
            circle:first-child { fill: #FEFEFE; }
            circle:nth-child(2) { fill: #7B504F; }
            path { fill: #FEFEFE; }
        }
    </style>
</svg>
